<mxfile host="app.diagrams.net" modified="2024-07-01T17:13:48.911Z" agent="Mozilla/5.0 (Windows NT 10.0; Win64; x64) AppleWebKit/537.36 (KHTML, like Gecko) Chrome/126.0.0.0 Safari/537.36" version="24.6.4" etag="Y6OpTKhxftwA21Kwg1ou" type="github">
  <diagram name="Page-1" id="w8NMSXXswHM774tr6cRy">
    <mxGraphModel>
      <root>
        <mxCell id="0" />
        <mxCell id="1" parent="0" />
      </root>
    </mxGraphModel>
  </diagram>
</mxfile>
